<svg width="500" height="500" viewBox="0 0 500 500" fill="none" xmlns="http://www.w3.org/2000/svg">
<g clip-path="url(#clip0_2199_9090)">
<rect width="500" height="500" rx="113.636" fill="#044F55"/>
<mask id="mask0_2199_9090" style="mask-type:luminance" maskUnits="userSpaceOnUse" x="79" y="165" width="342" height="170">
<path d="M414.979 166.369C391.572 190.357 365.86 201.997 341.403 207.365C337.012 208.246 325.93 210.405 300.33 211.12C298.19 211.163 274.533 210.316 250.168 210.058C222.805 208.731 202.265 208.785 186.673 209.7C180.305 210.135 160.219 211.859 147.194 216.677C113.894 229.456 101.03 251.92 98.067 256.01L98.194 255.983C86.4501 272.98 79.5354 293.539 79.5354 315.738V321.387C108.129 267.304 155.02 244.063 222.632 250.704C222.625 250.704 286.154 254.229 286.154 254.229L222.54 257.053C159.542 257.423 119.138 280.368 98.5365 334.585C118.119 318.762 138.77 310.289 158.599 305.93C162.989 305.048 174.064 302.901 199.672 302.174C201.811 302.132 225.457 302.978 249.826 303.236C277.188 304.556 297.729 304.51 313.32 303.605C319.689 303.151 339.783 301.447 352.8 296.621C386.1 283.842 398.964 261.378 401.934 257.288L401.796 257.315C413.54 240.318 420.454 219.759 420.454 197.56V168.624C420.454 166.7 418.873 165.415 417.23 165.415C416.433 165.415 415.629 165.715 414.979 166.373" fill="white"/>
</mask>
<g mask="url(#mask0_2199_9090)">
<path d="M420.457 165.412H79.5382V334.586H420.457V165.412Z" fill="url(#paint0_linear_2199_9090)"/>
</g>
</g>
<defs>
<linearGradient id="paint0_linear_2199_9090" x1="79.5057" y1="251.172" x2="420.363" y2="251.172" gradientUnits="userSpaceOnUse">
<stop stop-color="#00ADB5"/>
<stop offset="0.07" stop-color="#0FAFA5"/>
<stop offset="0.32" stop-color="#41B771"/>
<stop offset="0.5" stop-color="#61BC51"/>
<stop offset="0.61" stop-color="#6DBE45"/>
<stop offset="0.77" stop-color="#9BCD4E"/>
<stop offset="1" stop-color="#E1E55D"/>
</linearGradient>
<clipPath id="clip0_2199_9090">
<rect width="500" height="500" rx="113.636" fill="white"/>
</clipPath>
</defs>
</svg>
